<svg id="Capa_1" enable-background="new 0 0 512 512" height="512" viewBox="0 0 512 512" width="512" xmlns="http://www.w3.org/2000/svg" xmlns:xlink="http://www.w3.org/1999/xlink">
<linearGradient id="SVGID_1_" gradientUnits="userSpaceOnUse" x1="256" x2="256" y1="512" y2="0">
<stop offset="0" stop-color="#fd3a84"/>
<stop offset="1" stop-color="#ffa68d"/>
</linearGradient>
<g>
<g>
<g>
<path d="m415.726 364.582c-28.953-24.668-69.728-70.011-69.728-93.582 0-11.872 5.317-19.52 13.367-31.096 9.301-13.377 20.876-30.025 27.127-58.31 5.096-23.058 4.283-48.331-2.403-75.079l-23.529-95.117c-1.656-6.695-7.665-11.398-14.561-11.398h-30c-8.284 0-15 6.716-15 15v61c0 24.813-20.187 45-45 45s-45-20.187-45-45v-61c0-8.284-6.716-15-15-15h-30c-6.896 0-12.905 4.703-14.562 11.398l-23.52 95.081c-6.696 26.785-7.508 52.058-2.412 75.115 6.25 28.286 17.825 44.934 27.126 58.31 8.05 11.577 13.367 19.225 13.367 31.096 0 24.839-42.771 70.585-69.728 93.582-3.987 3.397-5.912 8.629-5.08 13.801.831 5.172 4.303 9.535 9.154 11.511.366.149 37.105 15.193 73.163 37.107 42.892 26.066 67.49 51.58 67.49 69.999 0 8.284 6.716 15 15 15s15-6.716 15-15c0-18.419 24.599-43.933 67.49-69.999 36.058-21.914 72.797-36.958 73.163-37.107 4.852-1.975 8.323-6.337 9.156-11.508.835-5.173-1.091-10.406-5.08-13.804z" fill="url(#SVGID_1_)"/></g></g></g></svg>